<mxfile host="app.diagrams.net" modified="2021-03-14T01:30:52.536Z" agent="5.0 (Macintosh; Intel Mac OS X 10_15_7) AppleWebKit/537.36 (KHTML, like Gecko) Chrome/88.0.4324.182 Safari/537.36" etag="D8wpqzJ9yhE-9y4Y4_zj" version="14.4.2" type="github">
  <diagram name="Page-1" id="d9b1e647-80fa-b4a2-5024-87a742678bcc">
    <mxGraphModel dx="949" dy="500" grid="1" gridSize="10" guides="1" tooltips="1" connect="1" arrows="1" fold="1" page="1" pageScale="1" pageWidth="1100" pageHeight="850" background="#ffffff" math="0" shadow="0">
      <root>
        <mxCell id="0" />
        <mxCell id="1" parent="0" />
        <mxCell id="57fe6abec08f04cb-1" value="Jan" style="shape=step;whiteSpace=wrap;html=1;fontSize=28;fillColor=#0080FF;fontColor=#FFFFFF;strokeColor=none;" parent="1" vertex="1">
          <mxGeometry x="90" y="180" width="170" height="80" as="geometry" />
        </mxCell>
        <mxCell id="57fe6abec08f04cb-2" value="Feb" style="shape=step;whiteSpace=wrap;html=1;fontSize=28;fillColor=#0075E8;fontColor=#FFFFFF;strokeColor=none;" parent="1" vertex="1">
          <mxGeometry x="240" y="180" width="170" height="80" as="geometry" />
        </mxCell>
        <mxCell id="57fe6abec08f04cb-3" value="Mar" style="shape=step;whiteSpace=wrap;html=1;fontSize=28;fillColor=#0067CC;fontColor=#FFFFFF;strokeColor=none;" parent="1" vertex="1">
          <mxGeometry x="390" y="180" width="170" height="80" as="geometry" />
        </mxCell>
        <mxCell id="57fe6abec08f04cb-4" value="Apr" style="shape=step;whiteSpace=wrap;html=1;fontSize=28;fillColor=#0062C4;fontColor=#FFFFFF;strokeColor=none;" parent="1" vertex="1">
          <mxGeometry x="540" y="180" width="170" height="80" as="geometry" />
        </mxCell>
        <mxCell id="57fe6abec08f04cb-5" value="May" style="shape=step;whiteSpace=wrap;html=1;fontSize=28;fillColor=#0059B0;fontColor=#FFFFFF;strokeColor=none;" parent="1" vertex="1">
          <mxGeometry x="690" y="180" width="170" height="80" as="geometry" />
        </mxCell>
        <mxCell id="57fe6abec08f04cb-6" value="Jun" style="shape=step;whiteSpace=wrap;html=1;fontSize=28;fillColor=#004D99;fontColor=#FFFFFF;strokeColor=none;" parent="1" vertex="1">
          <mxGeometry x="840" y="180" width="170" height="80" as="geometry" />
        </mxCell>
        <mxCell id="57fe6abec08f04cb-7" value="2020" style="text;html=1;strokeColor=none;fillColor=#61BAFF;align=center;verticalAlign=middle;whiteSpace=wrap;fontSize=54;fontStyle=1;fontColor=#004D99;" parent="1" vertex="1">
          <mxGeometry x="110" y="100" width="860" height="60" as="geometry" />
        </mxCell>
        <mxCell id="nK8ajeVO0bYjH4UbJxVL-1" value="July" style="shape=step;whiteSpace=wrap;html=1;fontSize=28;fillColor=#0080FF;fontColor=#FFFFFF;strokeColor=none;size=0.21428571428571427;" vertex="1" parent="1">
          <mxGeometry x="90" y="590" width="160" height="80" as="geometry" />
        </mxCell>
        <mxCell id="nK8ajeVO0bYjH4UbJxVL-2" value="Aug" style="shape=step;whiteSpace=wrap;html=1;fontSize=28;fillColor=#0075E8;fontColor=#FFFFFF;strokeColor=none;size=0.17647058823529413;" vertex="1" parent="1">
          <mxGeometry x="230" y="590" width="170" height="80" as="geometry" />
        </mxCell>
        <mxCell id="nK8ajeVO0bYjH4UbJxVL-3" value="Sep" style="shape=step;whiteSpace=wrap;html=1;fontSize=28;fillColor=#0067CC;fontColor=#FFFFFF;strokeColor=none;" vertex="1" parent="1">
          <mxGeometry x="380" y="590" width="170" height="80" as="geometry" />
        </mxCell>
        <mxCell id="nK8ajeVO0bYjH4UbJxVL-4" value="Oct" style="shape=step;whiteSpace=wrap;html=1;fontSize=28;fillColor=#0062C4;fontColor=#FFFFFF;strokeColor=none;" vertex="1" parent="1">
          <mxGeometry x="530" y="590" width="170" height="80" as="geometry" />
        </mxCell>
        <mxCell id="nK8ajeVO0bYjH4UbJxVL-5" value="Nov" style="shape=step;whiteSpace=wrap;html=1;fontSize=28;fillColor=#0059B0;fontColor=#FFFFFF;strokeColor=none;" vertex="1" parent="1">
          <mxGeometry x="680" y="590" width="170" height="80" as="geometry" />
        </mxCell>
        <mxCell id="nK8ajeVO0bYjH4UbJxVL-6" value="Dec" style="shape=step;whiteSpace=wrap;html=1;fontSize=28;fillColor=#004D99;fontColor=#FFFFFF;strokeColor=none;" vertex="1" parent="1">
          <mxGeometry x="830" y="590" width="170" height="80" as="geometry" />
        </mxCell>
        <mxCell id="nK8ajeVO0bYjH4UbJxVL-9" value="2/1&lt;br&gt;みんなの未来株式会社&lt;br&gt;入社&lt;br&gt;&lt;br&gt;&lt;br&gt;研修内容&lt;br&gt;・&lt;span&gt;VBAで擬似的ECサイトの作成&lt;br&gt;&lt;br&gt;&lt;br&gt;&lt;br&gt;&lt;br&gt;&lt;br&gt;&lt;br&gt;&lt;br&gt;&lt;br&gt;&lt;br&gt;&lt;br&gt;成果物発表&lt;br&gt;&lt;/span&gt;" style="text;spacingTop=-5;fillColor=#ffffff;whiteSpace=wrap;html=1;align=left;fontSize=12;fontFamily=Helvetica;fillColor=none;strokeColor=#000000;" vertex="1" parent="1">
          <mxGeometry x="240" y="280" width="140" height="290" as="geometry" />
        </mxCell>
        <mxCell id="nK8ajeVO0bYjH4UbJxVL-10" value="&lt;br&gt;&lt;br&gt;&lt;br&gt;&lt;br&gt;&lt;br&gt;&lt;br&gt;&lt;br&gt;&lt;br&gt;&lt;br&gt;&lt;br&gt;&lt;br&gt;&lt;br&gt;&lt;br&gt;&lt;br&gt;&lt;br&gt;&lt;br&gt;&lt;br&gt;&lt;br&gt;みんなの未来株式会社&lt;br&gt;研修開始" style="text;spacingTop=-5;fillColor=#ffffff;whiteSpace=wrap;html=1;align=left;fontSize=12;fontFamily=Helvetica;fillColor=none;strokeColor=#000000;" vertex="1" parent="1">
          <mxGeometry x="90" y="280" width="140" height="290" as="geometry" />
        </mxCell>
        <mxCell id="nK8ajeVO0bYjH4UbJxVL-11" value="1/27~" style="text;html=1;align=center;verticalAlign=middle;resizable=0;points=[];autosize=1;" vertex="1" parent="1">
          <mxGeometry x="90" y="505" width="50" height="20" as="geometry" />
        </mxCell>
        <mxCell id="nK8ajeVO0bYjH4UbJxVL-12" value="&lt;span&gt;&lt;br&gt;&lt;/span&gt;就業準備・自己学習&lt;br&gt;・Java&lt;br&gt;・C言語&lt;br&gt;・Pro*C&lt;br&gt;&lt;br&gt;&amp;nbsp; &amp;nbsp;&lt;br&gt;&lt;br&gt;&lt;br&gt;&lt;br&gt;&lt;br&gt;研修&lt;br&gt;・Schoo web&amp;nbsp;campus&lt;br&gt;&lt;br&gt;&amp;nbsp; &amp;nbsp; &amp;nbsp;要件定義&lt;br&gt;　&amp;nbsp; SQL&lt;br&gt;&amp;nbsp; &amp;nbsp; &amp;nbsp;ネットワーク&lt;br&gt;&amp;nbsp; &amp;nbsp; &amp;nbsp;テスト&amp;nbsp; &amp;nbsp; &amp;nbsp;&lt;br&gt;　　　　　　　その他　　&lt;br&gt;　&amp;nbsp;&amp;nbsp;" style="text;spacingTop=-5;fillColor=#ffffff;whiteSpace=wrap;html=1;align=left;fontSize=12;fontFamily=Helvetica;fillColor=none;strokeColor=#000000;" vertex="1" parent="1">
          <mxGeometry x="390" y="280" width="140" height="290" as="geometry" />
        </mxCell>
        <mxCell id="nK8ajeVO0bYjH4UbJxVL-15" value="&lt;span&gt;&lt;br&gt;&lt;/span&gt;自己学習&lt;br&gt;・C言語&lt;br&gt;・Pro*C&lt;br&gt;&lt;br&gt;&amp;nbsp; &amp;nbsp;&lt;br&gt;&lt;br&gt;&lt;br&gt;&lt;br&gt;&lt;br&gt;&lt;br&gt;休業期間中　研修&lt;br&gt;・Schoo web&amp;nbsp;campus&lt;br&gt;　&lt;br&gt;　&amp;nbsp; &lt;br&gt;　" style="text;spacingTop=-5;fillColor=#ffffff;whiteSpace=wrap;html=1;align=left;fontSize=12;fontFamily=Helvetica;fillColor=none;strokeColor=#000000;" vertex="1" parent="1">
          <mxGeometry x="540" y="280" width="140" height="290" as="geometry" />
        </mxCell>
        <mxCell id="nK8ajeVO0bYjH4UbJxVL-17" value="&lt;span&gt;&lt;br&gt;&lt;/span&gt;自己学習&lt;br&gt;・C言語&lt;br&gt;・基本情報技術者試験 &lt;br&gt;&lt;br&gt;&lt;br&gt;&amp;nbsp; &amp;nbsp;&lt;br&gt;&lt;br&gt;&lt;br&gt;&lt;br&gt;&lt;br&gt;&lt;br&gt;" style="text;spacingTop=-5;fillColor=#ffffff;whiteSpace=wrap;html=1;align=left;fontSize=12;fontFamily=Helvetica;fillColor=none;strokeColor=#000000;" vertex="1" parent="1">
          <mxGeometry x="690" y="280" width="140" height="290" as="geometry" />
        </mxCell>
        <mxCell id="nK8ajeVO0bYjH4UbJxVL-18" value="&lt;span&gt;&lt;br&gt;&lt;/span&gt;自己学習&lt;br&gt;・C言語&lt;br&gt;・基本情報技術者試験 &lt;br&gt;&amp;nbsp; &amp;nbsp;午前免除試験　合格&lt;br&gt;&lt;br&gt;&amp;nbsp; &amp;nbsp;&lt;br&gt;&lt;br&gt;&lt;br&gt;&lt;br&gt;&lt;br&gt;&lt;br&gt;" style="text;spacingTop=-5;fillColor=#ffffff;whiteSpace=wrap;html=1;align=left;fontSize=12;fontFamily=Helvetica;fillColor=none;strokeColor=#000000;" vertex="1" parent="1">
          <mxGeometry x="840" y="280" width="140" height="290" as="geometry" />
        </mxCell>
        <mxCell id="nK8ajeVO0bYjH4UbJxVL-19" value="&lt;span&gt;&lt;br&gt;&lt;/span&gt;自己学習&lt;br&gt;・Lpic - 1&lt;br&gt;・基本情報技術者&lt;br&gt;&lt;br&gt;&lt;br&gt;・Lpic - 1 合格&lt;br&gt;&lt;br&gt;&lt;br&gt;&amp;nbsp; &amp;nbsp;&lt;br&gt;&lt;br&gt;&lt;br&gt;&lt;br&gt;&lt;br&gt;" style="text;spacingTop=-5;fillColor=#ffffff;whiteSpace=wrap;html=1;align=left;fontSize=12;fontFamily=Helvetica;fillColor=none;strokeColor=#000000;" vertex="1" parent="1">
          <mxGeometry x="90" y="680" width="140" height="290" as="geometry" />
        </mxCell>
        <mxCell id="nK8ajeVO0bYjH4UbJxVL-20" value="" style="text;spacingTop=-5;fillColor=#ffffff;whiteSpace=wrap;html=1;align=left;fontSize=12;fontFamily=Helvetica;fillColor=none;strokeColor=#000000;" vertex="1" parent="1">
          <mxGeometry x="240" y="680" width="140" height="290" as="geometry" />
        </mxCell>
        <mxCell id="nK8ajeVO0bYjH4UbJxVL-21" value="Ruby、Ruby on Rails&lt;br&gt;&lt;br&gt;&lt;br&gt;・プロを目指す人のためのRuby入門&lt;br&gt;伊藤 淳一（著）&lt;br&gt;&lt;br&gt;・Progate&lt;br&gt;&lt;br&gt;&lt;br&gt;&lt;br&gt;&lt;br&gt;&lt;br&gt;&lt;br&gt;&lt;br&gt;&lt;br&gt;&lt;br&gt;スクールカリキュラム&lt;br&gt;開始" style="text;spacingTop=-5;fillColor=#ffffff;whiteSpace=wrap;html=1;align=left;fontSize=12;fontFamily=Helvetica;fillColor=none;strokeColor=#000000;" vertex="1" parent="1">
          <mxGeometry x="530" y="680" width="140" height="290" as="geometry" />
        </mxCell>
        <mxCell id="nK8ajeVO0bYjH4UbJxVL-22" value="" style="text;spacingTop=-5;fillColor=#ffffff;whiteSpace=wrap;html=1;align=left;fontSize=12;fontFamily=Helvetica;fillColor=none;strokeColor=#000000;" vertex="1" parent="1">
          <mxGeometry x="680" y="680" width="140" height="290" as="geometry" />
        </mxCell>
      </root>
    </mxGraphModel>
  </diagram>
</mxfile>
